<svg  width="100" height="100" viewBox="0 0 298 225" fill="none" xmlns="http://www.w3.org/2000/svg">
<path d="M83.8667 2.26662C83.2 3.59995 81.2 8.79995 79.6 13.9999C77.8667 19.0666 75.3333 25.7333 73.8667 28.6666C72.4 31.5999 55.2 73.6 35.6 122L0 210L25.3333 210.4C39.2 210.533 50.9333 210.4 51.2 210.133C51.6 209.733 55.3333 200.267 59.4667 189.067L67.0667 168.667H106.933H146.933L147.333 189.6L147.733 210.667H192C216.267 210.667 238.4 210.267 241.067 209.867C245.733 209.067 246 208.667 246.8 202.933C247.733 196.4 252.133 187.733 257.2 183.067C258.8 181.467 263.733 178.533 268 176.533C274.533 173.6 277.2 173.067 284.267 173.6L292.8 174.133L294.533 167.333C295.467 163.733 296.133 155.6 296 149.333C295.6 124.267 283.067 107.333 259.733 100.533L252.267 98.4L255.6 96.1333C272.533 85.0666 280.133 66.5333 276.933 43.7333C273.733 21.0666 262 8.93328 237.333 2.53328C228.4 0.266615 222.4 -5.16772e-05 187.467 -5.16772e-05H147.6L147.333 21.5999L146.933 43.2L138.4 21.5999L129.867 -5.16772e-05H107.467C87.4667 -5.16772e-05 84.9333 0.266615 83.8667 2.26662ZM215.867 38.8C226.533 41.4666 232.8 51.4666 230.933 62.5333C228.933 74.6666 221.2 80.2666 204.667 82L195.6 82.9333V59.6V36.1333L203.333 36.9333C207.467 37.3333 213.2 38.1333 215.867 38.8ZM119.467 95.7333C125.333 111.333 130.267 124.8 130.267 125.467C130.267 126.133 120.4 126.667 106.8 126.667C84.9333 126.667 83.3333 126.533 84.1333 124.267C97.6 88.5333 106.933 65.6 107.733 66.2666C108.133 66.9333 113.467 80.1333 119.467 95.7333ZM228.267 125.867C241.467 129.867 248.533 142.667 244.933 155.867C241.733 167.733 230.667 173.333 210.667 173.333H199.6L197.6 168.533C196.133 164.933 195.6 158.533 195.6 143.867V124H208.667C216.267 124 224.533 124.8 228.267 125.867Z" fill="black"/>
<path d="M274 196.933C269.6 199.733 267.6 204 267.6 210.533C267.6 223.733 284.133 230 293.2 220.267C297.467 215.733 298.533 211.2 296.8 204.8C294.4 196 282.4 191.733 274 196.933Z" fill="black"/>
</svg>
